# xmcd
#
# Track frame offsets: 
#        150
#        14510
#        29139
#        37863
#        47365
#        57182
#        69481
#        77651
#        91421
#        107472
#        116440
#        130034
#        144293
#        155608
#        166670
#        186951
#        200122
#        209791
#        222938
#        237999
#        251534
#        272821
#        290844
#        307608
#        324535
#        334676
#        345847
#
# Disc length: 4745 seconds
#
# Revision: 1
# Processed by: cddbd v1.5.2PL0 Copyright (c) Steve Scherf et al.
# Submitted via: ExactAudioCopy v0.99pb5
#
DISCID=8212871b
DTITLE=Various Artist - Bärenstark - Bear Essentials
DYEAR=2000
DGENRE=Country
TTITLE0=Ian Whitcomb - March of the bear family
TTITLE1=Paul Marshall - Bear valley jail
TTITLE2=Ray Campi - Bear skin rug
TTITLE3=Ted Herold and Wanda Jackson - Teddy bear
TTITLE4=Laura Jo deWitt - Barefoot baby
TTITLE5=Majestics - El oso negro (The black bear)
TTITLE6=Pep Torres - Bear out there
TTITLE7=Ellie Mae's Biscuits - Bear family down the line
TTITLE8=Darrin Stout and The Starlighters - I can't bear these lonely ni
TTITLE8=ghts
TTITLE9=Casey Sisters - Grizzly bear stomp
TTITLE10=Bobby Omen - Morning bear
TTITLE11=Rip Masters - Does a bear sleep in the woods
TTITLE12=Samantha Newcomb - Bear cat
TTITLE13=Rip Carson - Bowlegged bear
TTITLE14=Big Jay McNeely - Big bear blues
TTITLE15=Dee Lannon - Hey there, honey bear
TTITLE16=Henry Hill - Bear emotions
TTITLE17=Lesley Schatz - The preacher and the bear
TTITLE18=Sammy Rose - Bear necessities
TTITLE19=Floyd Domino - Bear cat crawl
TTITLE20=James Talley - I've seen the bear
TTITLE21=Jon Emery - Bare my soul
TTITLE22=Hermann Lammers-Meyer - Bear creek lounge
TTITLE23=Harry Orlove - The bear missed the train
TTITLE24=Skip Heller's Hot Six - Trapeze over an open bear trap
TTITLE25=Little Sophie - Bear in the bed
TTITLE26=Ian Whitcomb - The bumbling bear
EXTD=
EXTT0=
EXTT1=
EXTT2=
EXTT3=
EXTT4=
EXTT5=
EXTT6=
EXTT7=
EXTT8=
EXTT9=
EXTT10=
EXTT11=
EXTT12=
EXTT13=
EXTT14=
EXTT15=
EXTT16=
EXTT17=
EXTT18=
EXTT19=
EXTT20=
EXTT21=
EXTT22=
EXTT23=
EXTT24=
EXTT25=
EXTT26=
PLAYORDER=
